<?xml version="1.0" encoding="UTF-8" standalone="no"?>
<!-- Generator: Adobe Illustrator 15.0.0, SVG Export Plug-In . SVG Version: 6.00 Build 0)  -->

<svg
   xmlns:dc="http://purl.org/dc/elements/1.1/"
   xmlns:cc="http://creativecommons.org/ns#"
   xmlns:rdf="http://www.w3.org/1999/02/22-rdf-syntax-ns#"
   xmlns:svg="http://www.w3.org/2000/svg"
   xmlns="http://www.w3.org/2000/svg"
   xmlns:sodipodi="http://sodipodi.sourceforge.net/DTD/sodipodi-0.dtd"
   xmlns:inkscape="http://www.inkscape.org/namespaces/inkscape"
   version="1.1"
   x="0px"
   y="0px"
   width="701.875"
   height="813.09375"
   viewBox="238.5 -17 701.875 813.09375"
   enable-background="new 238.5 -17 701 750"
   xml:space="preserve"
   id="svg3290"
   inkscape:version="0.48.4 r9939"
   sodipodi:docname="Flow-volume-loop.svg"><metadata
   id="metadata3593"><rdf:RDF><cc:Work
       rdf:about=""><dc:format>image/svg+xml</dc:format><dc:type
         rdf:resource="http://purl.org/dc/dcmitype/StillImage" /></cc:Work></rdf:RDF></metadata><defs
   id="defs3591"><marker
   inkscape:stockid="Arrow1Mend"
   orient="auto"
   refY="0.0"
   refX="0.0"
   id="Arrow1Mend"
   style="overflow:visible;"><path
     id="path4732"
     d="M 0.0,0.0 L 5.0,-5.0 L -12.5,0.0 L 5.0,5.0 L 0.0,0.0 z "
     style="fill-rule:evenodd;stroke:#000000;stroke-width:1.0pt;"
     transform="scale(0.4) rotate(180) translate(10,0)" /></marker>
	
	
	
	
	
	
	
	
	
	
	

	
	
	
	
	
	
	
	
	

	
		
	
		
	
		
	
	
	
	
</defs><sodipodi:namedview
   pagecolor="#ffffff"
   bordercolor="#666666"
   borderopacity="1"
   objecttolerance="10"
   gridtolerance="10"
   guidetolerance="10"
   inkscape:pageopacity="0"
   inkscape:pageshadow="2"
   inkscape:window-width="1920"
   inkscape:window-height="1033"
   id="namedview3589"
   showgrid="false"
   fit-margin-top="0"
   fit-margin-left="0"
   fit-margin-right="0"
   fit-margin-bottom="0"
   inkscape:zoom="1.2586667"
   inkscape:cx="89.779358"
   inkscape:cy="482.81844"
   inkscape:window-x="-4"
   inkscape:window-y="-4"
   inkscape:window-maximized="1"
   inkscape:current-layer="layer4" />
<g
   inkscape:groupmode="layer"
   id="layer2"
   inkscape:label="Draw and axes"
   style="display:inline"
   transform="translate(28.46875,-2.4375)"
   sodipodi:insensitive="true"><g
     transform="translate(-5.5626497,-0.52690689)"
     id="g3428"><text
       style="font-size:28.70470047px;font-family:MyriadPro-Regular"
       id="text3430"
       font-size="28.7047"
       transform="translate(352.4971,41.333)">10</text>
<text
       style="font-size:28.70470047px;font-family:MyriadPro-Regular"
       id="text3432"
       font-size="28.7047"
       transform="translate(368.4282,107)">8</text>
<text
       style="font-size:28.70470047px;font-family:MyriadPro-Regular"
       id="text3434"
       font-size="28.7047"
       transform="translate(368.4282,173.333)">6</text>
<text
       style="font-size:28.70470047px;font-family:MyriadPro-Regular"
       id="text3436"
       font-size="28.7047"
       transform="translate(368.4282,238.333)">4</text>
<text
       style="font-size:28.70470047px;font-family:MyriadPro-Regular"
       id="text3438"
       font-size="28.7047"
       transform="translate(368.4282,307.667)">2</text>
<text
       style="font-size:28.70470047px;font-family:MyriadPro-Regular"
       id="text3440"
       font-size="28.7047"
       transform="translate(368.4282,373.667)">0</text>
<text
       style="font-size:28.70470047px;font-family:MyriadPro-Regular"
       id="text3442"
       font-size="28.7047"
       transform="translate(368.4282,439.667)">2</text>
<text
       style="font-size:28.70470047px;font-family:MyriadPro-Regular"
       id="text3444"
       font-size="28.7047"
       transform="translate(522.4277,396.5557)">2</text>
<text
       style="font-size:28.70470047px;font-family:MyriadPro-Regular"
       id="text3446"
       font-size="28.7047"
       transform="translate(368.4282,505.667)">4</text>
<text
       style="font-size:28.70470047px;font-family:MyriadPro-Regular"
       id="text3448"
       font-size="28.7047"
       transform="translate(654.4277,396.5557)">4</text>
<text
       style="font-size:28.70470047px;font-family:MyriadPro-Regular"
       id="text3450"
       font-size="28.7047"
       transform="translate(368.4282,572.334)">6</text>
<text
       style="font-size:28.70470047px;font-family:MyriadPro-Regular"
       id="text3452"
       font-size="28.7047"
       transform="translate(788.4277,396.5557)">6</text>
<text
       style="font-size:28.70470047px;font-family:MyriadPro-Regular"
       id="text3454"
       font-size="28.7047"
       transform="translate(368.4282,637.001)">8</text>
<text
       style="font-size:28.70470047px;font-family:MyriadPro-Regular"
       id="text3456"
       font-size="28.7047"
       transform="translate(352.4971,701.667)">10</text>
</g><g
     transform="translate(-5.5626497,-0.52690689)"
     id="g3458"><line
       style="fill:none;stroke:#383634;stroke-width:2;stroke-miterlimit:10"
       id="line3460"
       y2="695"
       x2="394.16501"
       y1="31"
       x1="394.16501"
       stroke-miterlimit="10" /><line
       style="fill:none;stroke:#383634;stroke-width:2;stroke-miterlimit:10"
       id="line3462"
       y2="362.33301"
       x2="796.164"
       y1="362.33301"
       x1="386.83099"
       stroke-miterlimit="10" /><line
       style="fill:none;stroke:#383634;stroke-width:2;stroke-miterlimit:10"
       id="line3464"
       y2="31.569"
       x2="385.271"
       y1="31.569"
       x1="393.30301"
       stroke-miterlimit="10" /><line
       style="fill:none;stroke:#383634;stroke-width:2;stroke-miterlimit:10"
       id="line3466"
       y2="97.421997"
       x2="385.271"
       y1="97.421997"
       x1="393.30301"
       stroke-miterlimit="10" /><line
       style="fill:none;stroke:#383634;stroke-width:2;stroke-miterlimit:10"
       id="line3468"
       y2="164.078"
       x2="385.271"
       y1="164.078"
       x1="393.30301"
       stroke-miterlimit="10" /><line
       style="fill:none;stroke:#383634;stroke-width:2;stroke-miterlimit:10"
       id="line3470"
       y2="229.931"
       x2="385.271"
       y1="229.931"
       x1="393.30301"
       stroke-miterlimit="10" /><line
       style="fill:none;stroke:#383634;stroke-width:2;stroke-miterlimit:10"
       id="line3472"
       y2="297.39001"
       x2="385.271"
       y1="297.39001"
       x1="393.30301"
       stroke-miterlimit="10" /><line
       style="fill:none;stroke:#383634;stroke-width:2;stroke-miterlimit:10"
       id="line3474"
       y2="362.439"
       x2="385.271"
       y1="362.439"
       x1="393.30301"
       stroke-miterlimit="10" /><line
       style="fill:none;stroke:#383634;stroke-width:2;stroke-miterlimit:10"
       id="line3476"
       y2="429.89801"
       x2="385.271"
       y1="429.89801"
       x1="393.30301"
       stroke-miterlimit="10" /><line
       style="fill:none;stroke:#383634;stroke-width:2;stroke-miterlimit:10"
       id="line3478"
       y2="495.75201"
       x2="385.271"
       y1="495.75201"
       x1="393.30301"
       stroke-miterlimit="10" /><line
       style="fill:none;stroke:#383634;stroke-width:2;stroke-miterlimit:10"
       id="line3480"
       y2="562.40698"
       x2="385.271"
       y1="562.40698"
       x1="393.30301"
       stroke-miterlimit="10" /><line
       style="fill:none;stroke:#383634;stroke-width:2;stroke-miterlimit:10"
       id="line3482"
       y2="628.26099"
       x2="385.271"
       y1="628.26099"
       x1="393.30301"
       stroke-miterlimit="10" /><line
       style="fill:none;stroke:#383634;stroke-width:2;stroke-miterlimit:10"
       id="line3484"
       y2="694.11298"
       x2="385.271"
       y1="694.11298"
       x1="393.30301"
       stroke-miterlimit="10" /><line
       style="fill:none;stroke:#383634;stroke-width:2;stroke-miterlimit:10"
       id="line3486"
       y2="357"
       x2="528.5"
       y1="368"
       x1="528.5"
       stroke-miterlimit="10" /><line
       style="fill:none;stroke:#383634;stroke-width:2;stroke-miterlimit:10"
       id="line3488"
       y2="357"
       x2="660.5"
       y1="368"
       x1="660.5"
       stroke-miterlimit="10" /><line
       style="fill:none;stroke:#383634;stroke-width:2;stroke-miterlimit:10"
       id="line3490"
       y2="357"
       x2="796.5"
       y1="368"
       x1="796.5"
       stroke-miterlimit="10" /></g></g><g
   inkscape:groupmode="layer"
   id="layer4"
   inkscape:label="Espiro"
   transform="translate(28.46875,-2.4375)"
   style="display:inline"
   sodipodi:insensitive="true"><path
     style="fill:none;stroke:#008000;stroke-width:3;stroke-linecap:butt;stroke-linejoin:miter;stroke-miterlimit:4;stroke-opacity:1;stroke-dasharray:none"
     d="m 150.857,378.97246 c 5.86051,-163.06765 13.54643,-290.156169 23.81136,-315.135875 3.14395,-7.650792 7.02138,15.689194 10.82504,21.731247 7.91625,12.574847 9.59599,23.906908 17.89643,29.633438 8.30044,5.72653 17.01434,1.74105 25.46691,4.6433 8.45257,2.90225 12.47089,6.04635 24.58606,12.83551 12.11517,6.78916 35.35431,14.86504 47.66949,28.6017 12.31518,13.73666 14.07357,36.42963 23.04025,50.05297 8.96668,13.62334 20.0621,22.01466 28.6017,31.77966 8.5396,9.765 17.27197,18.05697 22.71311,26.7323 5.44114,8.67533 3.27713,17.73344 8.27206,18.95096 4.99492,1.21751 3.54998,-1.18246 10.32839,-0.39725 6.77841,0.78521 35.21232,33.14537 53.23093,46.08051 18.01861,12.93514 38.97109,25.38043 54.02542,31.77966 15.05433,6.39923 34.16314,11.52013 34.16314,11.52013 -0.79109,26.74618 -1.09773,51.66115 -3.97246,79.44916 -2.146,15.34462 -0.86597,23.99575 -7.94492,41.31355 -3.50451,3.57521 -3.4725,7.94492 -8.7394,13.10911 -2.74596,0.0745 -5.85848,1.75301 -10.12977,4.36971 -4.14552,6.31005 -7.38856,11.27762 -14.49947,16.68432 -7.11091,5.4067 -5.59987,1.79884 -9.5339,4.76694 -3.93403,2.9681 -4.95913,8.69897 -8.7394,11.52013 -3.78027,2.82116 -10.54725,-0.58545 -12.71187,-0.79449 -2.16462,-0.20905 -9.13923,3.44339 -12.71186,5.56144 -3.57263,2.11805 -7.08381,6.57595 -8.73941,6.75318 -1.6556,0.17723 -8.49451,1.69602 -11.91737,4.3697 -3.42286,2.67368 -4.75791,5.69687 -7.15043,6.35594 -2.39252,0.65906 -3.75704,-0.58747 -5.16419,0.79449 -1.40715,1.38196 -1.4045,6.87153 -4.3697,7.94491 -2.9652,1.07338 -6.26968,0.97999 -10.72564,-0.79449 -4.45597,-1.77449 -5.212,1.53848 -6.15731,1.78761 -0.94531,0.24913 -5.28371,3.71295 -7.74629,3.77383 -2.46258,0.0609 -5.0296,-0.95137 -7.15043,0.39725 -2.12083,1.34862 -3.0269,2.67341 -7.15042,2.78072 -4.12352,0.10731 -4.51165,-2.10845 -7.54767,-0.79449 -3.03602,1.31396 -2.95765,3.31334 -5.95868,3.17796 -3.00103,-0.13538 -4.4629,-4.16105 -7.7463,-3.17796 -3.2834,0.98309 -9.11142,2.8998 -13.70498,2.38347 -4.59356,-0.51633 -7.8794,-2.77982 -12.31461,-4.76695 -4.43521,-1.98712 -10.85786,2.51493 -14.6981,3.17797 -3.84023,0.66304 -4.17669,-4.94149 -7.15042,-5.56145 -2.97373,-0.61995 -3.09167,3.16655 -7.94492,0.7945 -4.85325,-2.37206 -20.56631,-18.02683 -23.83474,-23.04025 -3.26843,-5.01342 -7.01168,-5.80225 -11.12288,-7.15043 -4.1112,-1.34818 -8.43834,0.64647 -12.71187,-0.79449 -4.27353,-1.44096 -6.39813,-5.86517 -10.32839,-5.95869 -3.93025,-0.0935 -5.14833,2.65802 -9.5339,2.78072 -4.38557,0.1227 -11.77549,-6.24153 -15.09534,-7.94491 -3.31985,-1.70338 -2.62111,-0.41864 -4.76694,-2.38348 -2.14583,-1.96484 -3.22293,-6.75674 -6.35594,-10.32839 -3.13301,-3.57165 -7.7817,-5.38302 -12.71186,-10.32839 -4.93017,-4.94538 -19.43168,-25.56136 -27.8072,-65.1483 -5.66443,-21.64525 -5.72438,-48.89497 -8.04131,-73.88771 z"
     id="path5204"
     inkscape:connector-curvature="0"
     transform="translate(238.5,-17)"
     sodipodi:nodetypes="csszzzzzzzzzzzccccczzzzzzzzzzzzzzzzzzzzzzzzzzzzzzzzcc" /><g
     id="g5963"><path
       inkscape:connector-curvature="0"
       id="path5216"
       d="m 411.15219,236.7409 c 2.24716,-47.19039 2.24716,-47.19039 2.24716,-47.19039"
       style="fill:#008000;stroke:#008000;stroke-width:2;stroke-linecap:butt;stroke-linejoin:miter;stroke-miterlimit:4;stroke-opacity:1;stroke-dasharray:none;marker-start:none;marker-end:none;display:inline" /><path
       sodipodi:nodetypes="cccc"
       inkscape:connector-curvature="0"
       id="rect5960"
       d="m 413.99395,177.07619 2.4649,13.67247 -6.19326,-0.33964 z"
       style="color:#000000;fill:#008000;fill-opacity:1;fill-rule:nonzero;stroke:#008000;stroke-width:2;stroke-linecap:butt;stroke-linejoin:round;stroke-miterlimit:4;stroke-opacity:1;stroke-dashoffset:0;marker:none;visibility:visible;display:inline;overflow:visible;enable-background:accumulate" /></g><g
     transform="matrix(-0.66582333,0.74610944,-0.74610944,-0.66582333,1069.5102,85.646171)"
     id="g5973"><path
       inkscape:connector-curvature="0"
       id="path5975"
       d="m 411.15219,236.7409 c 2.24716,-47.19039 2.24716,-47.19039 2.24716,-47.19039"
       style="fill:#008000;stroke:#008000;stroke-width:2;stroke-linecap:butt;stroke-linejoin:miter;stroke-miterlimit:4;stroke-opacity:1;stroke-dasharray:none;marker-start:none;marker-end:none;display:inline" /><path
       sodipodi:nodetypes="cccc"
       inkscape:connector-curvature="0"
       id="path5977"
       d="m 413.99395,177.07619 2.4649,13.67247 -6.19326,-0.33964 z"
       style="color:#000000;fill:#008000;fill-opacity:1;fill-rule:nonzero;stroke:#008000;stroke-width:2;stroke-linecap:butt;stroke-linejoin:round;stroke-miterlimit:4;stroke-opacity:1;stroke-dashoffset:0;marker:none;visibility:visible;display:inline;overflow:visible;enable-background:accumulate" /></g><g
     id="g5986"
     transform="matrix(-0.60221525,-0.79833376,0.79833376,-0.60221525,733.07717,988.84355)"><path
       style="fill:#008000;stroke:#008000;stroke-width:2;stroke-linecap:butt;stroke-linejoin:miter;stroke-miterlimit:4;stroke-opacity:1;stroke-dasharray:none;marker-start:none;marker-end:none;display:inline"
       d="m 411.15219,236.7409 c 2.24716,-47.19039 2.24716,-47.19039 2.24716,-47.19039"
       id="path5988"
       inkscape:connector-curvature="0" /><path
       style="color:#000000;fill:#008000;fill-opacity:1;fill-rule:nonzero;stroke:#008000;stroke-width:2;stroke-linecap:butt;stroke-linejoin:round;stroke-miterlimit:4;stroke-opacity:1;stroke-dashoffset:0;marker:none;visibility:visible;display:inline;overflow:visible;enable-background:accumulate"
       d="m 413.99395,177.07619 2.4649,13.67247 -6.19326,-0.33964 z"
       id="path5990"
       inkscape:connector-curvature="0"
       sodipodi:nodetypes="cccc" /></g><g
     transform="matrix(0.87634206,-0.4816893,0.4816893,0.87634206,-35.043755,485.29126)"
     id="g5992"><path
       inkscape:connector-curvature="0"
       id="path5994"
       d="m 411.15219,236.7409 c 2.24716,-47.19039 2.24716,-47.19039 2.24716,-47.19039"
       style="fill:#008000;stroke:#008000;stroke-width:2;stroke-linecap:butt;stroke-linejoin:miter;stroke-miterlimit:4;stroke-opacity:1;stroke-dasharray:none;marker-start:none;marker-end:none;display:inline" /><path
       sodipodi:nodetypes="cccc"
       inkscape:connector-curvature="0"
       id="path5996"
       d="m 413.99395,177.07619 2.4649,13.67247 -6.19326,-0.33964 z"
       style="color:#000000;fill:#008000;fill-opacity:1;fill-rule:nonzero;stroke:#008000;stroke-width:2;stroke-linecap:butt;stroke-linejoin:round;stroke-miterlimit:4;stroke-opacity:1;stroke-dashoffset:0;marker:none;visibility:visible;display:inline;overflow:visible;enable-background:accumulate" /></g></g><g
   inkscape:groupmode="layer"
   id="layer3"
   inkscape:label="Label lines"
   style="display:inline"
   transform="translate(28.46875,-2.4375)"
   sodipodi:insensitive="true"><line
     style="fill:none;stroke:#fe2121;stroke-width:3;stroke-miterlimit:10"
     id="line3496"
     y2="536.18024"
     x2="492.97861"
     y1="364.18021"
     x1="492.97861"
     stroke-miterlimit="10" /><line
     style="fill:none;stroke:#fe2121;stroke-width:3;stroke-miterlimit:10"
     id="line3498"
     y2="574.18024"
     x2="593.97864"
     y1="364.18021"
     x1="593.97864"
     stroke-miterlimit="10" /><line
     style="fill:none;stroke:#fe2121;stroke-width:3;stroke-miterlimit:10"
     id="line3500"
     y2="531.72443"
     x2="692.97864"
     y1="364.14169"
     x1="692.97864"
     stroke-miterlimit="10" /><line
     style="fill:none;stroke:#cf7c00;stroke-width:4;stroke-miterlimit:10"
     id="line3502"
     y2="39.180202"
     x2="484.97861"
     y1="46.781216"
     x1="419.76761"
     stroke-miterlimit="10" /><line
     style="fill:none;stroke:#291eff;stroke-width:3;stroke-miterlimit:10"
     id="line3522"
     y2="362.7092"
     x2="492.36362"
     y1="115.46721"
     x1="492.36362"
     stroke-miterlimit="10" /><line
     style="fill:none;stroke:#291eff;stroke-width:3;stroke-miterlimit:10"
     id="line3524"
     y2="362.7092"
     x2="594.36365"
     y1="227.51421"
     x1="594.36365"
     stroke-miterlimit="10" /><line
     style="fill:none;stroke:#291eff;stroke-width:3;stroke-miterlimit:10"
     id="line3526"
     y2="362.7092"
     x2="693.36365"
     y1="321.51422"
     x1="693.36365"
     stroke-miterlimit="10" /><line
     style="fill:none;stroke:#cf7c00;stroke-width:4;stroke-miterlimit:10"
     id="line3528"
     y2="296.18021"
     x2="823.97864"
     y1="362.78122"
     x1="776.76764"
     stroke-miterlimit="10" /><path
     style="fill:none;stroke:#0000ff;stroke-width:4;stroke-linecap:butt;stroke-linejoin:miter;stroke-miterlimit:4;stroke-opacity:1;stroke-dasharray:none"
     d="m 337.4726,47.615867 c -15.90304,-0.203365 -31.80461,15.065099 -31.80175,25.259361 0.0117,41.553382 0.0462,80.991132 0.0965,111.022662 -0.57451,13.35565 -13.51729,16.62434 -22.33484,21.14708 8.2635,6.28502 21.83038,12.59437 22.43977,27.02122 0.13954,50.49553 0.3298,80.12264 0.50503,97.50569 0.24878,24.6789 32.27335,27.0286 32.27335,27.0286"
     id="path4715"
     inkscape:connector-curvature="0"
     sodipodi:nodetypes="ccccccc" /><path
     sodipodi:nodetypes="ccccccc"
     inkscape:connector-curvature="0"
     id="path4717"
     d="m 338.87396,358.78125 c -15.39414,-0.14446 -30.78687,10.70135 -30.78409,17.94277 0.0113,29.51706 0.0447,57.53132 0.0934,78.86394 -0.55612,9.48708 -13.08474,11.80897 -21.62012,15.02165 7.99908,4.4645 21.13181,8.94629 21.72169,19.19429 0.13508,35.86903 0.31925,56.91439 0.48887,69.26227 0.24083,17.53045 31.24061,19.19954 31.24061,19.19954"
     style="fill:none;stroke:#ff0000;stroke-width:4;stroke-linecap:butt;stroke-linejoin:miter;stroke-miterlimit:4;stroke-opacity:1;stroke-dasharray:none" /><path
     sodipodi:type="arc"
     style="color:#000000;fill:none;stroke:#cf7c00;stroke-width:6.71136618;stroke-linecap:butt;stroke-linejoin:miter;stroke-miterlimit:10;stroke-opacity:1;stroke-dasharray:none;stroke-dashoffset:0;marker:none;visibility:visible;display:inline;overflow:visible;enable-background:accumulate"
     id="path5163"
     sodipodi:cx="180.89648"
     sodipodi:cy="63.492199"
     sodipodi:rx="3.3707421"
     sodipodi:ry="3.9325323"
     d="m 184.26723,63.492199 a 3.3707421,3.9325323 0 1 1 -6.74149,0 3.3707421,3.9325323 0 1 1 6.74149,0 z"
     transform="matrix(0.58506925,0,0,0.60714285,310.57607,8.6456024)" /><path
     transform="matrix(0.58506925,0,0,0.60714285,668.89175,324.05874)"
     d="m 184.26723,63.492199 a 3.3707421,3.9325323 0 1 1 -6.74149,0 3.3707421,3.9325323 0 1 1 6.74149,0 z"
     sodipodi:ry="3.9325323"
     sodipodi:rx="3.3707421"
     sodipodi:cy="63.492199"
     sodipodi:cx="180.89648"
     id="path5200"
     style="color:#000000;fill:none;stroke:#cf7c00;stroke-width:6.71136618;stroke-linecap:butt;stroke-linejoin:miter;stroke-miterlimit:10;stroke-opacity:1;stroke-dasharray:none;stroke-dashoffset:0;marker:none;visibility:visible;display:inline;overflow:visible;enable-background:accumulate"
     sodipodi:type="arc" /></g><g
   id="Layer_1"
   display="none"
   style="display:none"
   transform="translate(28.46875,-2.4375)">
	<path
   display="inline"
   d="m 356.731,26.104 c -1.159,-2.667 3.339,-3.302 5.056,-4.258 2.307,5.042 -0.043,10.7 1.085,15.996 1.55,-0.015 2.363,0.742 2.458,2.282 -2.89,0.1 -5.79,0.21 -8.67,0.02 -1.619,-2.404 1.632,-2.315 3.102,-2.4 0.106,-3.8 0.093,-7.601 -0.06,-11.4 -0.74,-0.069 -2.23,-0.183 -2.971,-0.24 z"
   id="path3293"
   inkscape:connector-curvature="0"
   style="fill:#383634;display:inline" />
	<path
   display="inline"
   d="m 370.035,24.277 c 2.424,-1.728 5.78,-3.01 8.298,-0.699 3.573,3.767 3.735,9.837 1.44,14.355 -0.728,0.743 -1.435,1.485 -2.132,2.237 -1.919,0.097 -3.829,0.083 -5.74,0.02 -3.922,-3.376 -4.711,-9.034 -2.998,-13.74 0.287,-0.54 0.844,-1.632 1.132,-2.173 z"
   id="path3295"
   inkscape:connector-curvature="0"
   style="fill:#383634;display:inline" />
	<path
   display="inline"
   d="m 372.052,26.31 c 1.924,-1.727 4.066,-1.024 5.503,0.951 0.7,2.777 0.389,5.649 0.219,8.469 -1.107,0.854 -2.204,1.718 -3.321,2.552 -1.325,-1.396 -2.561,-2.891 -3.257,-4.699 0.193,-2.441 0.534,-4.852 0.856,-7.273 z"
   id="path3297"
   inkscape:connector-curvature="0"
   style="fill:#fffeff;display:inline" />
	<path
   display="inline"
   d="M 694.468,362.376"
   id="path3299"
   inkscape:connector-curvature="0"
   style="fill:#383634;display:inline" />
	<path
   display="inline"
   d="m 396.492,533.258 c -0.076,1.11 -0.112,2.24 -0.009,3.36 0.791,23.117 0.102,46.26 0.513,69.389 0.575,24.317 -0.171,48.65 0.774,72.957 -0.15,5.691 0.65,11.438 -0.351,17.091 -3.25,-0.027 -6.5,0.004 -9.74,0.024 0.098,-0.649 0.226,-1.301 0.394,-1.921 2.35,-0.219 4.71,-0.116 7.07,-0.114 -0.017,-4.63 -0.013,-9.271 -0.089,-13.9 -0.84,-0.026 -2.53,-0.091 -3.371,-0.118 -0.639,-2.527 2.135,-1.657 3.383,-2.172 -0.016,-4.55 -0.031,-9.109 -0.138,-13.649 -1.521,-0.306 -3.201,-0.489 -4.126,-1.896 1.349,-0.235 2.698,-0.43 4.067,-0.595 0.054,-4.8 0.066,-9.6 0.05,-14.39 -0.82,-0.098 -2.45,-0.271 -3.261,-0.369 -1.688,-2.314 1.772,-2.026 3.143,-2.161 0.143,-4.91 -0.005,-9.82 0.028,-14.72 -2.343,-0.542 -7.765,1.537 -7.507,-2.034 2.479,-0.158 4.969,-0.087 7.459,-0.146 -0.026,-4.58 -0.042,-9.149 -0.038,-13.72 -1.501,-0.415 -3.112,-0.679 -4.177,-1.905 1.35,-0.215 2.709,-0.399 4.078,-0.545 0.063,-4.809 -0.023,-9.619 -0.061,-14.419 -1.77,-0.062 -3.352,-0.608 -4.308,-2.174 1.42,-0.146 2.84,-0.26 4.26,-0.355 -0.008,-4.86 -0.114,-9.72 -0.031,-14.58 -1.4,-0.096 -2.791,-0.2 -4.182,-0.306 0.704,-1.842 2.413,-2.058 4.153,-2.075 -0.017,-4.899 0.156,-9.789 -0.021,-14.68 -2.261,-0.072 -4.511,-0.084 -6.771,-0.065 -0.352,-0.509 -1.055,-1.537 -1.407,-2.045 2.68,-0.13 5.38,-0.13 8.08,-0.158 0.063,-4.552 -0.002,-9.101 -0.048,-13.65 -0.689,-0.048 -2.091,-0.133 -2.79,-0.18 -0.282,-0.449 -0.846,-1.338 -1.137,-1.786 1.31,-0.176 2.618,-0.33 3.928,-0.474 -0.036,-4.851 -0.123,-9.681 -0.07,-14.521 -1.4,-0.105 -2.801,-0.21 -4.201,-0.315 0.754,-1.703 2.664,-1.739 4.203,-2.185 0.014,-4.51 -0.052,-9.01 0.022,-13.501 -1.602,-0.334 -3.462,-0.397 -4.298,-2.055 1.41,-0.145 2.83,-0.279 4.26,-0.385 0.112,-4.9 0.035,-9.79 -0.042,-14.68 -2.35,-0.032 -4.7,-0.055 -7.04,-0.075 -0.241,-0.47 -0.725,-1.429 -0.967,-1.897 2.629,-0.198 5.27,-0.219 7.909,-0.188 0.013,-4.899 0.096,-9.801 -0.021,-14.689 -1.35,-0.085 -2.69,-0.172 -4.03,-0.257 0.328,-0.49 0.984,-1.473 1.313,-1.965 0.699,-0.021 2.089,-0.076 2.789,-0.1 -0.075,-4.519 -0.052,-9.029 -0.087,-13.539 -1.651,-0.225 -3.203,-0.729 -4.148,-2.187 1.34,-0.153 2.689,-0.288 4.039,-0.403 0.023,-4.82 0.087,-9.64 0.09,-14.451 -1.36,-0.184 -2.722,-0.379 -4.072,-0.574 0.604,-1.862 2.354,-1.928 4.023,-1.994 0.113,-4.58 -0.112,-9.149 -0.078,-13.71 -2.673,-0.871 -5.552,-0.32 -8.244,-1.121 2.062,-2.297 5.376,-1.129 8.065,-1.339 0.225,-4.431 0.119,-8.869 0.073,-13.31 -1.502,-0.555 -3.143,-0.959 -4.277,-2.176 1.359,-0.234 2.719,-0.489 4.067,-0.773 0.534,-4.651 0.098,-9.36 0.102,-14.031 -1.602,-0.273 -3.621,-0.157 -4.028,-2.156 1.359,-0.124 2.729,-0.229 4.1,-0.313"
   id="path3301"
   inkscape:connector-curvature="0"
   style="fill:#383634;display:inline" />
	<path
   display="inline"
   d="m 393.479,248.966 c -1.422,-0.455 -2.844,-0.93 -4.245,-1.405 1.197,-0.834 2.626,-1.079 4.035,-1.354 0.243,-4.881 0.187,-9.771 -0.001,-14.65 -2.73,-0.101 -5.48,-0.081 -8.182,-0.481 1.649,-3.195 5.476,-1.409 8.272,-2.019 -0.135,-4.559 0.119,-9.11 -0.047,-13.65 -1.421,-0.185 -2.832,-0.38 -4.232,-0.595 0.905,-1.533 2.744,-1.559 4.273,-2.005 -0.096,-4.52 0.118,-9.04 -0.048,-13.55 -1.441,-0.515 -3.331,-0.518 -4.058,-2.176 1.01,-0.113 3.039,-0.331 4.049,-0.444 0.153,-4.84 0.036,-9.68 -0.051,-14.52 -1.45,0.005 -4.368,0.416 -3.257,-1.999 0.8,-0.053 2.399,-0.158 3.199,-0.201 0.023,-4.79 0.106,-9.59 -0.2,-14.379 -2.76,0 -5.53,0.02 -8.252,-0.461 1.811,-2.826 5.455,-1.479 8.225,-1.729 0.272,-4.911 0.305,-9.831 -0.002,-14.74 -1.211,-0.196 -2.411,-0.432 -3.593,-0.697 -0.186,-1.819 2.557,-1 3.665,-1.563 0.144,-4.721 0.188,-9.441 0.091,-14.16 -1.7,-0.034 -3.759,0.263 -3.537,-2.098 0.859,-0.033 2.599,-0.1 3.459,-0.132 0.084,-4.791 -0.004,-9.59 -0.05,-14.38 -1.143,-0.557 -3.789,0.313 -3.726,-1.507 1.148,-0.454 2.357,-0.768 3.606,-0.922 0.204,-4.691 0.078,-9.381 0.041,-14.081 -2.762,-0.37 -6.745,1.253 -8.276,-1.901 2.729,-0.279 5.479,-0.339 8.219,-0.368 0.024,-4.521 0.048,-9.031 0.072,-13.54 -0.7,-0.098 -2.11,-0.272 -2.812,-0.37 -2.696,-2.001 1.473,-2.206 2.753,-2.18 0.043,-4.85 0.116,-9.701 -0.021,-14.54 -0.9,-0.017 -2.68,-0.051 -3.57,-0.068 -0.128,-2.35 1.853,-2.156 3.593,-2.152 0.063,-4.62 -0.022,-9.24 -0.019,-13.86 -1.392,-0.305 -2.952,-0.44 -3.696,-1.857 0.909,-0.124 2.708,-0.38 3.607,-0.502 0.204,-4.821 -0.014,-9.65 0.03,-14.471 -2.881,-0.13 -5.693,-0.87 -8.317,-2.041 3.255,-1.352 7.235,-1.416 10.549,-0.277 0.664,18.378 0.379,36.78 0.263,55.16 0.264,46.919 0.407,93.829 0.451,140.739 l -0.009,0.52"
   id="path3303"
   inkscape:connector-curvature="0"
   style="fill:#383634;display:inline" />
	<path
   display="inline"
   d="m 696.617,365.109 c -0.409,0.301 -1.237,0.915 -1.646,1.216"
   id="path3305"
   inkscape:connector-curvature="0"
   style="fill:#383634;display:inline" />
	<path
   display="inline"
   d="m 516.654,32.345 c 2.486,-0.829 5.289,-0.218 7.898,-0.388 0.092,0.63 0.276,1.91 0.379,2.549 -0.62,0.042 -1.85,0.126 -2.47,0.158 0.048,5.09 0.006,10.181 0.104,15.27 2.1,0.013 4.2,0.016 6.311,0.018 0.002,-2.33 -0.007,-4.66 -0.005,-6.99 0.75,-0.003 2.25,-0.028 3,-0.031 10e-4,3.21 -0.018,6.44 0.243,9.649 -5.18,-0.022 -10.35,0.016 -15.52,0.034 0.008,-0.64 0.022,-1.94 0.031,-2.58 0.649,-0.032 1.96,-0.087 2.609,-0.119 0.053,-5.051 -0.065,-10.11 0.037,-15.161 -0.721,-0.047 -2.171,-0.142 -2.891,-0.189 0.07,-0.549 0.206,-1.66 0.274,-2.22 z"
   id="path3307"
   inkscape:connector-curvature="0"
   style="fill:#383634;display:inline" />
	<path
   display="inline"
   d="m 542.323,31.905 c 0.669,-0.122 2.018,-0.387 2.698,-0.519 -3.085,7.221 -6.792,14.174 -10.327,21.186 -0.629,0.132 -1.898,0.397 -2.538,0.529 2.824,-7.309 6.721,-14.163 10.167,-21.196 z"
   id="path3309"
   inkscape:connector-curvature="0"
   style="fill:#383634;display:inline" />
	<path
   display="inline"
   d="m 433.834,32.284 c 5.3,-0.028 10.599,-0.077 15.91,-0.036 0.048,2.24 0.025,4.47 -0.097,6.701 -3.715,1.383 -2.389,-2.312 -2.885,-4.09 -2.439,-0.001 -4.89,0.027 -7.33,0.125 0.017,1.92 0.023,3.84 0.011,5.77 2.24,0.122 4.501,0.194 6.751,0.296 0.012,0.66 0.026,1.97 0.039,2.62 -2.249,0.118 -4.489,0.175 -6.729,0.223 0.007,2.03 0.015,4.07 0.052,6.11 2.099,-0.317 2.634,1.031 2.54,2.871 -2.79,0.01 -5.58,0.02 -8.37,0.029 -0.126,-1.839 0.349,-3.211 2.49,-2.849 0.072,-5.05 0.005,-10.11 -0.003,-15.16 -0.601,0.002 -1.78,0.016 -2.37,0.018 -0.002,-0.658 -0.007,-1.977 -0.009,-2.628 z"
   id="path3311"
   inkscape:connector-curvature="0"
   style="fill:#383634;display:inline" />
	<path
   display="inline"
   d="m 450.394,32.287 c 1.789,-0.116 3.591,-0.053 5.4,0.011 0.021,5.89 -0.009,11.79 0.082,17.69 1.999,-0.317 2.194,1.222 2.22,2.822 -2.561,0.019 -5.13,0.098 -7.681,0.017 -0.052,-0.63 -0.146,-1.89 -0.198,-2.52 0.67,-0.052 2.01,-0.147 2.68,-0.199 -0.019,-5.09 -0.036,-10.18 -0.054,-15.27 -0.69,0.002 -2.06,0.007 -2.75,0.01 0.078,-0.641 0.223,-1.921 0.301,-2.561 z"
   id="path3313"
   inkscape:connector-curvature="0"
   style="fill:#383634;display:inline" />
	<path
   display="inline"
   d="m 516.037,59.018 c -11.385,-4.101 -11.32,-22.871 -0.306,-27.359 0.792,3.587 -3.663,4.813 -4.332,7.976 -0.888,3.743 -0.913,7.853 0.08,11.58 0.702,3.146 4.896,4.311 4.558,7.803 z"
   id="path3315"
   inkscape:connector-curvature="0"
   style="fill:#383634;display:inline" />
	<path
   display="inline"
   d="m 592.042,31.482 c 11.313,4.05 11.391,23.121 0.035,27.17 -0.123,-3.54 3.983,-4.854 4.621,-8.106 0.826,-3.873 0.852,-8.023 -0.36,-11.809 -0.941,-2.767 -4.606,-4.004 -4.296,-7.255 z"
   id="path3317"
   inkscape:connector-curvature="0"
   style="fill:#383634;display:inline" />
	<path
   display="inline"
   d="m 463.938,38.879 c 5.21,-2.768 12.078,2.208 10.817,8.032 -0.672,5.303 -7.432,7.976 -11.713,5.011 -4.73,-2.823 -4.277,-10.964 0.896,-13.043 z"
   id="path3319"
   inkscape:connector-curvature="0"
   style="fill:#383634;display:inline" />
	<path
   display="inline"
   d="m 474.122,40.304 c 0.088,-0.47 0.275,-1.411 0.363,-1.881 1.97,0.002 3.94,-0.014 5.92,-0.031 0.495,1.509 -0.451,2.492 -1.578,3.316 0.808,2.407 1.616,4.814 2.476,7.211 0.791,-2.513 1.562,-5.036 2.304,-7.568 -1.293,-0.605 -1.646,-1.674 -1.271,-2.986 2.229,0.022 4.469,-0.025 6.699,0.127 0.334,1.258 -0.052,2.36 -1.139,3.304 0.748,2.407 1.566,4.805 2.545,7.131 0.65,-2.642 1.462,-5.245 2.383,-7.809 l -1.791,-0.333 c -1.314,-4.095 4.403,-1.845 6.602,-2.403 0.187,1.779 -1.031,2.543 -2.309,3.338 -1.407,3.584 -2.404,7.308 -3.542,10.982 -0.71,0.002 -2.14,0.008 -2.85,0.01 -1.111,-3.247 -2.103,-6.523 -3.343,-9.719 -0.859,3.273 -1.897,6.497 -2.866,9.74 -0.71,0.002 -2.141,0.017 -2.851,0.02 -1.161,-3.385 -2.144,-6.832 -3.405,-10.178 -0.193,-1.239 -1.545,-1.564 -2.347,-2.271 z"
   id="path3321"
   inkscape:connector-curvature="0"
   style="fill:#383634;display:inline" />
	<path
   display="inline"
   d="m 548.196,38.655 c 2.905,-1.49 6.19,-0.112 9.279,-0.402 -0.005,1.67 -0.01,3.34 -0.033,5.02 -2.079,0.197 -3.056,-1.64 -4.579,-2.594 -1.542,-0.675 -2.989,0.361 -4.316,0.995 1.791,3.314 6.884,1.116 8.955,4.239 1.748,2.344 0.32,6.009 -2.527,6.589 -1.857,0.627 -3.779,0.124 -5.62,-0.22 -0.771,0.102 -2.299,0.297 -3.06,0.4 -0.025,-1.8 -0.032,-3.59 -0.028,-5.39 2.707,-0.64 3.13,2.778 5.54,2.91 1.609,0.055 3.828,-0.563 3.071,-2.631 -2.444,-1.012 -5.403,-0.761 -7.489,-2.533 -1.907,-1.753 -1.338,-5.085 0.807,-6.383 z"
   id="path3323"
   inkscape:connector-curvature="0"
   style="fill:#383634;display:inline" />
	<path
   display="inline"
   d="m 561.396,49.959 c -3.353,-3.729 -1.326,-10.416 3.53,-11.703 5.033,-2.008 10.697,2.403 10.446,7.724 -4.189,0.134 -8.38,0.069 -12.569,0.094 0.836,1.777 2.062,3.623 4.164,3.976 3.163,0.929 5.577,-3.529 8.556,-0.96 -3.275,4.271 -10.552,5.207 -14.127,0.869 z"
   id="path3325"
   inkscape:connector-curvature="0"
   style="fill:#383634;display:inline" />
	<path
   display="inline"
   d="m 581.057,38.5 c 3.084,-1.531 6.53,0.137 9.798,-0.414 0.007,1.93 0.014,3.85 0.021,5.77 -3.169,0.431 -3.676,-4.387 -7.003,-3.466 -4.477,0.746 -4.862,7.627 -0.917,9.353 2.475,1.222 4.858,-0.667 6.382,-2.462 0.551,0.338 1.664,1.004 2.225,1.342 -2.54,5.469 -11.591,5.521 -13.841,-0.182 -1.953,-3.532 -0.169,-8.178 3.335,-9.941 z"
   id="path3327"
   inkscape:connector-curvature="0"
   style="fill:#383634;display:inline" />
	<path
   display="inline"
   d="m 465.376,41.544 c 3.623,-2.113 7.791,2.913 5.632,6.221 -1.01,2.823 -5.418,3.278 -7.007,0.764 -2.107,-2.032 -1.04,-5.717 1.375,-6.985 z"
   id="path3329"
   inkscape:connector-curvature="0"
   style="fill:#fffeff;display:inline" />
	<path
   display="inline"
   d="m 562.964,43.753 c 1.366,-4.005 6.646,-4.273 8.857,-0.851 -0.049,0.22 -0.157,0.661 -0.207,0.88 -2.889,0.132 -5.77,0.022 -8.65,-0.029 z"
   id="path3331"
   inkscape:connector-curvature="0"
   style="fill:#fffeff;display:inline" />
	<path
   display="inline"
   d="m 395.384,46.858 c 6.587,-1.033 13.38,-0.166 20.038,-0.56 1.521,0.064 3.041,0.169 4.572,0.284 -0.14,0.371 -0.406,1.122 -0.546,1.502 -0.17,0.13 -0.519,0.402 -0.688,0.533 -0.91,-0.007 -2.72,-0.03 -3.63,-0.038 -6.482,-0.307 -13.158,0.666 -19.522,-0.381 l -0.224,-1.34 z"
   id="path3333"
   inkscape:connector-curvature="0"
   style="fill:#291eff;display:inline" />
	<path
   display="inline"
   d="m 369.002,92.301 c 1.735,-4.196 8.434,-4.719 10.986,-1.148 1.458,2.175 0.096,4.47 -0.787,6.543 2.188,2.083 3.381,5.938 0.247,7.79 -4.433,4.725 -14.713,-1.149 -10.165,-7.215 0.379,-0.132 1.129,-0.404 1.499,-0.536 -0.574,-0.978 -1.147,-1.945 -1.73,-2.914 -0.013,-0.63 -0.037,-1.89 -0.05,-2.52 z"
   id="path3335"
   inkscape:connector-curvature="0"
   style="fill:#383634;display:inline" />
	<path
   display="inline"
   d="m 371.942,92.241 c 2.227,-0.868 4.488,-0.556 6.244,1.108 -1.107,0.944 -2.203,1.878 -3.331,2.792 -1.472,-0.935 -3.326,-1.779 -2.913,-3.9 z"
   id="path3337"
   inkscape:connector-curvature="0"
   style="fill:#fffeff;display:inline" />
	<path
   display="inline"
   d="m 371.167,102.093 c 1.006,-1.243 1.808,-3.486 3.84,-2.953 1.683,0.764 3.886,1.766 3.034,4.04 -1.556,1.365 -3.817,0.773 -5.687,0.939 -0.302,-0.509 -0.896,-1.516 -1.187,-2.026 z"
   id="path3339"
   inkscape:connector-curvature="0"
   style="fill:#fffeff;display:inline" />
	<path
   display="inline"
   d="m 461.047,101.85 c 4.776,-0.957 8.489,2.531 13.041,3.044 5.46,0.071 7.524,7.144 13.063,6.975 1.769,-0.086 3.173,0.759 4.287,2.105 -10.098,0.375 -20.199,0.101 -30.299,0.386 -0.104,-4.171 -0.138,-8.35 -0.092,-12.51 z"
   id="path3341"
   inkscape:connector-curvature="0"
   style="fill:#fffeff;display:inline" />
	<path
   display="inline"
   d="m 461.14,114.359 c 10.1,-0.285 20.201,-0.011 30.299,-0.386 0.569,-0.032 1.72,-0.096 2.29,-0.128 0.159,-0.01 0.46,-0.031 0.62,-0.042 0.29,0.439 0.873,1.307 1.155,1.736 0.21,14.209 0.25,28.419 0.158,42.63 -0.549,0.072 -1.658,0.206 -2.209,0.278 0.089,-11.931 -0.112,-23.85 -0.035,-35.771 0.023,-2.17 -0.265,-4.319 -0.622,-6.458 -10.568,0.287 -21.138,0.214 -31.718,0.36 -0.112,-0.56 -0.336,-1.659 -0.448,-2.208 l 0.51,-0.011 z"
   id="path3343"
   inkscape:connector-curvature="0"
   style="fill:#291eff;display:inline" />
	<path
   display="inline"
   d="m 396.57,117.354 c -1.184,-0.985 -1.057,-1.836 0.371,-2.551 2.909,-0.2 5.83,-0.15 8.75,-0.141 -0.078,0.7 -0.243,2.101 -0.33,2.801 -2.93,-0.028 -5.87,0.062 -8.791,-0.109 z"
   id="path3345"
   inkscape:connector-curvature="0"
   style="fill:#291eff;display:inline" />
	<path
   display="inline"
   d="m 407.171,117.578 c 0.147,-1.011 0.363,-2.012 0.659,-2.993 17.601,0.108 35.2,-0.263 52.8,-0.214 0.112,0.55 0.336,1.649 0.448,2.208 -8.65,-0.08 -17.287,0.701 -25.948,0.551 -9.319,0.203 -18.651,-0.134 -27.959,0.448 z"
   id="path3347"
   inkscape:connector-curvature="0"
   style="fill:#291eff;display:inline" />
	<path
   display="inline"
   d="m 372.022,172.431 c -6.175,-4.289 -4.274,-15.424 3.019,-17.29 2.239,-0.508 5.84,0.09 5.561,3.091 -3.341,-0.468 -7.841,-0.323 -8.526,3.859 2.06,0.023 4.12,0.016 6.19,0.008 1.043,1.077 2.097,2.153 3.171,3.209 0.751,3.147 -0.469,6.251 -3.303,7.881 -2.039,-0.083 -4.337,0.526 -6.112,-0.758 z"
   id="path3349"
   inkscape:connector-curvature="0"
   style="fill:#383634;display:inline" />
	<path
   display="inline"
   d="m 461.488,165.209 c 10.717,-0.897 21.413,-2.135 32.056,-3.672 -10e-4,19.37 0.106,38.73 0.193,58.1 -0.023,1.831 -0.337,3.642 -0.642,5.442 -10.569,-0.123 -21.139,0.044 -31.709,0.071 0.242,-19.982 -0.448,-39.969 0.102,-59.941 z"
   id="path3351"
   inkscape:connector-curvature="0"
   style="fill:#fffeff;display:inline" />
	<path
   display="inline"
   d="m 493.544,161.537 c 0.561,-0.062 1.681,-0.196 2.239,-0.268 0.063,20.79 0.056,41.59 0.248,62.379 -0.254,1.891 2.304,1.102 3.375,1.348 22.02,-0.146 44.05,-0.214 66.08,-0.32 9.38,-0.113 18.78,0.164 28.138,-0.628 0.923,0.877 1.707,1.884 2.351,3.002 0.177,30.639 0.204,61.28 0.351,91.919 31.47,-0.08 62.95,-0.16 94.419,-0.349 0.743,0.656 1.415,1.444 2.048,2.232 -5.277,0.799 -10.618,0.478 -15.929,0.546 -26.84,0.114 -53.679,0.157 -80.528,0.312 -0.002,13.53 0.175,27.049 0.071,40.58 -0.54,0.002 -1.62,0.006 -2.16,0.007 -0.253,-9.669 0.173,-19.34 -0.46,-28.989 0.076,-3.88 0.502,-7.771 -0.142,-11.629 -32.439,0.163 -64.88,0.196 -97.319,0.379 0.017,13.399 0.123,26.799 0.11,40.2 -0.53,0.001 -1.59,-0.005 -2.12,-0.003 -0.547,-13.408 0.426,-26.861 -0.701,-40.237 -10.629,0.077 -21.249,0.104 -31.868,0.121 -0.002,-0.67 -0.007,-2 -0.01,-2.67 10.59,-0.058 21.189,-0.095 31.789,-0.111 0.779,-8.882 0.418,-17.802 0.447,-26.702 -0.06,-19.99 -0.17,-39.97 -0.189,-59.95 -0.037,-1.859 -0.303,-3.699 -0.579,-5.528 -10.608,0.207 -21.22,0.134 -31.829,0.201 -0.002,-0.56 0.004,-1.68 0.012,-2.23 10.57,-0.027 21.14,-0.193 31.709,-0.071 0.305,-1.801 0.618,-3.612 0.642,-5.442 -0.089,-19.369 -0.196,-38.729 -0.195,-58.099 z"
   id="path3353"
   inkscape:connector-curvature="0"
   style="fill:#291eff;display:inline" />
	<path
   display="inline"
   d="m 371.945,167.401 c 0.991,-2.573 3.972,-2.344 6.203,-2.122 -0.235,1.521 1.054,3.966 -0.894,4.643 -2.105,1.528 -4.852,-0.233 -5.309,-2.521 z"
   id="path3355"
   inkscape:connector-curvature="0"
   style="fill:#fffeff;display:inline" />
	<path
   display="inline"
   d="m 370.192,229.748 c 2.43,-2.899 3.224,-7.542 7.28,-8.695 2.819,2.69 0.956,7.336 1.498,10.854 1.453,0.715 4.532,0.574 3.45,2.988 -0.719,0.152 -2.168,0.447 -2.888,0.6 -0.594,1.683 -0.495,4.262 -2.997,3.811 -0.105,-1.38 -0.2,-2.75 -0.274,-4.119 -2.64,0.009 -5.27,-0.012 -7.89,-0.053 -0.257,-2.039 0.607,-3.822 1.821,-5.386 z"
   id="path3357"
   inkscape:connector-curvature="0"
   style="fill:#383634;display:inline" />
	<path
   display="inline"
   d="m 414.497,225.353 c 15.63,-0.075 31.26,-0.159 46.89,-0.204 -0.008,0.55 -0.014,1.67 -0.012,2.23"
   id="path3359"
   inkscape:connector-curvature="0"
   style="fill:#291eff;display:inline" />
	<path
   display="inline"
   d="m 372.607,231.18 c 1.063,-1.714 2.318,-3.298 3.533,-4.903 0.066,1.93 0.093,3.86 0.13,5.8 -1.21,-0.026 -4.195,1.455 -3.663,-0.897 z"
   id="path3361"
   inkscape:connector-curvature="0"
   style="fill:#fffeff;display:inline" />
	<path
   display="inline"
   d="m 496.044,227.258 c 32.39,-0.192 64.79,-0.236 97.18,-0.439 0.11,5.85 0.961,11.697 0.182,17.55 0.481,8.987 0.482,18.008 0.273,26.999 -0.874,7.343 0.912,14.677 -0.003,22 -0.29,8.541 0.14,17.09 -0.071,25.631 -32.42,0.083 -64.849,0.267 -97.279,0.309 -0.107,-30.68 -0.285,-61.37 -0.282,-92.05 z"
   id="path3363"
   inkscape:connector-curvature="0"
   style="fill:#fffeff;display:inline" />
	<path
   display="inline"
   d="m 397.035,322.015 c 0.008,-0.561 0.004,-1.681 0.012,-2.24 21.559,-0.235 43.12,-0.16 64.689,-0.306 0.003,0.67 0.008,2 0.01,2.67 -15.65,0.024 -31.301,0.109 -46.94,0.143 -5.93,-0.019 -11.86,0.292 -17.771,-0.267 z"
   id="path3365"
   inkscape:connector-curvature="0"
   style="fill:#291eff;display:inline" />
	<path
   display="inline"
   d="m 694.624,321.446 c 0.088,-0.701 -0.878,-2.228 0.242,-2.361 1.933,0.793 1.422,3.445 1.607,5.115 -0.105,12.79 0.26,25.579 -0.046,38.37 -0.49,-0.048 -1.471,-0.145 -1.96,-0.193 -0.338,-13.699 0.094,-27.42 -0.394,-41.119 l 0.551,0.188 z"
   id="path3367"
   inkscape:connector-curvature="0"
   style="fill:#291eff;display:inline" />
	<path
   display="inline"
   d="m 761.955,332.871 c 0.72,-0.042 2.16,-0.138 2.88,-0.191 0.189,5.68 0.309,11.379 0.099,17.061 -0.244,1.621 -2.575,1.249 -2.92,-0.16 -0.21,-5.56 -0.24,-11.14 -0.059,-16.71 z"
   id="path3369"
   inkscape:connector-curvature="0"
   style="fill:#383634;display:inline" />
	<path
   display="inline"
   d="m 774.814,332.716 c 2.03,-0.007 4.061,-0.024 6.11,-0.031 0.282,0.509 0.845,1.547 1.117,2.065 -1.339,0.465 -2.697,0.86 -4.046,1.254 0.059,5.49 -0.031,10.981 0.067,16.48 1.68,-0.126 3.102,0.369 4.266,1.505 -1.932,2.527 -4.866,1.257 -7.417,0.886 -0.005,-7.39 0.019,-14.77 -0.097,-22.159 z"
   id="path3371"
   inkscape:connector-curvature="0"
   style="fill:#383634;display:inline" />
	<path
   display="inline"
   d="m 782.924,332.487 c 1.31,-0.044 2.922,0.45 2.947,2.06 0.276,4.709 0.103,9.439 0.109,14.149 0.156,1.63 -1.772,2.147 -3.022,2.222 -0.102,-6.15 -0.103,-12.29 -0.034,-18.431 z"
   id="path3373"
   inkscape:connector-curvature="0"
   style="fill:#383634;display:inline" />
	<path
   display="inline"
   d="m 787.765,332.69 c 2.089,-0.107 4.18,-0.054 6.29,-0.051 1.112,6.606 0.316,13.318 0.51,19.978 0.681,2.968 -3.071,2.561 -4.818,3.328 -0.953,-0.737 -3.736,-1.668 -1.832,-3.224 0.79,-0.053 2.37,-0.158 3.16,-0.221 0.32,-5.491 0.281,-11.001 -0.008,-16.49 -1.773,-0.645 -5.294,-0.613 -3.302,-3.32 z"
   id="path3375"
   inkscape:connector-curvature="0"
   style="fill:#383634;display:inline" />
	<path
   display="inline"
   d="m 753.285,347.291 c -2.177,-1.922 -1.408,-5.325 0.415,-7.221 0.771,0.248 2.322,0.731 3.103,0.979 0.098,1.85 0.124,3.7 0.13,5.56 -1.099,0.343 -2.614,1.938 -3.648,0.682 z"
   id="path3377"
   inkscape:connector-curvature="0"
   style="fill:#fffeff;display:inline" />
	<path
   display="inline"
   d="m 494.958,365.833 c 0.369,-0.291 1.107,-0.874 1.476,-1.164 0.085,1.669 0.151,3.339 0.188,5.009 0.221,54.76 0.332,109.519 0.614,164.278 29.109,-0.021 58.219,-0.242 87.34,-0.315 3.49,0.049 7.02,0.096 10.478,-0.596 -0.451,-54.819 -0.272,-109.64 -0.764,-164.449 0.126,-1.09 0.282,-2.161 0.488,-3.231 0.439,-0.171 1.328,-0.534 1.768,-0.716 0.285,56.13 0.532,112.249 0.567,168.37 2.122,0.343 4.272,0.614 6.442,0.578 13.339,-0.228 26.7,0.106 40.028,-0.63 17.109,-0.081 34.209,-0.17 51.319,-0.2 0.045,-29.909 -0.189,-59.819 -0.244,-89.729 -0.217,-24.95 0.076,-49.911 -0.451,-74.859 0.188,-0.461 0.565,-1.392 0.764,-1.853 0.409,-0.301 1.237,-0.915 1.646,-1.216 0.245,56.08 0.252,112.169 0.687,168.258 -0.259,0.411 -0.786,1.243 -1.044,1.654 -0.51,0.111 -1.529,0.315 -2.039,0.418 -32.339,0.182 -64.679,0.165 -97.018,0.468 0.07,11.76 0.042,23.52 0.163,35.29 -0.419,0.392 -1.246,1.175 -1.664,1.575 -5.241,-0.191 -10.491,-0.253 -15.721,0.115 -60.6,0.142 -121.199,0.354 -181.799,0.635 -0.152,-0.369 -0.454,-1.099 -0.604,-1.469 0.178,-0.319 0.536,-0.981 0.715,-1.302 49.979,-0.024 99.958,-0.51 149.929,-0.373 4.782,0.323 9.582,0.526 14.371,0.249 5.09,-0.107 10.191,0.125 15.28,-0.183 0.649,-0.042 1.96,-0.127 2.619,-0.17 4.88,-0.276 9.77,-0.053 14.659,-0.32 -0.159,-11.34 -0.109,-22.69 -0.169,-34.03 -29.551,-0.087 -59.1,0.247 -88.649,0.249 -3.741,-0.096 -7.491,-0.083 -11.221,0.069 -32.879,0.125 -65.759,0.319 -98.629,0.375 -0.104,-1.12 -0.067,-2.25 0.009,-3.36 2.998,-0.44 6.028,-0.602 9.058,-0.552 21.971,0.054 43.949,-0.443 65.91,-0.18 2.252,0.482 4.572,0.384 6.83,-0.064 1.93,-0.137 3.869,-0.164 5.81,-0.13 3.62,0.208 7.382,0.604 10.888,-0.567 -0.18,-37.021 -0.269,-74.051 -0.408,-111.069 -0.211,-17.57 0.167,-35.152 -0.404,-52.699 0.187,-0.542 0.584,-1.623 0.782,-2.164 z"
   id="path3379"
   inkscape:connector-curvature="0"
   style="fill:#fe2121;display:inline" />
	<path
   display="inline"
   d="m 526.315,379.584 c 1.521,-0.016 3.051,-0.03 4.58,-0.047 1.833,0.954 3.199,2.489 4.245,4.256 0.789,5.598 -6.115,6.892 -8.873,10.581 3.051,0.209 6.2,0.049 9.114,1.169 -0.309,0.511 -0.914,1.532 -1.223,2.044 -4.083,-0.596 -8.826,1.181 -12.454,-0.938 0.103,-2.21 1.566,-3.935 2.951,-5.52 2.065,-1.278 4.131,-2.555 6.187,-3.862 0.396,-0.932 0.804,-1.853 1.221,-2.764 -0.963,-0.668 -1.598,-2.215 -2.967,-1.899 -2.761,-0.241 -4.692,4.927 -7.333,2.085 0.427,-0.971 0.893,-1.933 1.39,-2.864 1.059,-0.733 2.116,-1.477 3.162,-2.241 z"
   id="path3381"
   inkscape:connector-curvature="0"
   style="fill:#383634;display:inline" />
	<path
   display="inline"
   d="m 660.195,382.176 c 1.095,-1.623 3.687,-3.933 5.315,-1.568 0.621,3.318 -0.177,6.771 0.405,10.129 1.521,0.234 3.251,0.43 3.368,2.358 -0.789,0.103 -2.38,0.319 -3.169,0.421 -0.325,1.262 -0.631,2.523 -0.887,3.803 -2.599,0.58 -2.807,-1.969 -3.603,-3.697 -2.264,-0.881 -7.336,1.227 -7.039,-2.484 1.892,-2.978 3.821,-5.925 5.61,-8.962 z"
   id="path3383"
   inkscape:connector-curvature="0"
   style="fill:#383634;display:inline" />
	<path
   display="inline"
   d="m 791.166,381.799 c 2.711,-2.658 6.891,-2.744 10.137,-1.064 0.479,2.798 -2.474,1.947 -4.213,2.084 -2.482,-0.561 -3.653,2.013 -4.566,3.777 2.08,0.062 4.248,-0.396 6.31,0.097 1.185,0.995 2.268,2.103 3.411,3.159 0.09,2.59 -0.399,5.87 -3.045,7.08 -1.707,1.026 -3.738,0.713 -5.618,0.7 -0.591,-0.328 -1.772,-0.965 -2.364,-1.282 -3.175,-4.12 -3.077,-10.371 -0.052,-14.551 z"
   id="path3385"
   inkscape:connector-curvature="0"
   style="fill:#383634;display:inline" />
	<path
   display="inline"
   d="m 396.539,386.416 c 0.215,6.87 2.058,13.515 2.741,20.312 2.691,14.621 4.583,29.374 8.343,43.771 1.911,6.153 5.121,11.792 7.062,17.936 2.628,7.961 7.592,14.823 10.619,22.623 1.998,5.323 6.412,9.077 9.179,13.948 3.22,2.648 7.667,4.633 9.031,8.908 1.379,5.096 6.038,8.1 9.312,11.928 0.631,-0.002 1.91,0.003 2.551,10e-4 0.368,-0.521 1.125,-1.563 1.503,-2.085 0.47,0.088 1.431,0.275 1.911,0.363 1.399,2.865 4.105,4.586 7.06,5.536 2.319,-0.069 4.174,1.145 5.609,2.87 -21.961,-0.264 -43.939,0.233 -65.91,0.18 -3.029,-0.05 -6.06,0.111 -9.058,0.552 0.531,-31.083 -0.367,-62.189 -0.076,-93.279 0.178,-17.853 -0.805,-35.73 0.123,-53.564 z"
   id="path3387"
   inkscape:connector-curvature="0"
   style="fill:#fffeff;display:inline" />
	<path
   display="inline"
   d="m 658.807,391.021 c 0.692,-2.242 2.186,-4.088 3.79,-5.744 -0.073,1.871 -0.236,3.752 -0.461,5.623 -0.83,0.022 -2.49,0.088 -3.329,0.121 z"
   id="path3389"
   inkscape:connector-curvature="0"
   style="fill:#fffeff;display:inline" />
	<path
   display="inline"
   d="m 791.991,391.896 c 1.266,-1.264 2.731,-2.289 4.239,-3.245 1.113,1.227 3.969,2.627 2.445,4.571 -1.729,2.927 -5.415,1.02 -6.684,-1.326 z"
   id="path3391"
   inkscape:connector-curvature="0"
   style="fill:#fffeff;display:inline" />
	<path
   display="inline"
   d="m 368.897,426.124 c 1.131,-5.494 9.014,-7.512 12.479,-3.034 1.275,1.336 1.021,3.197 0.938,4.887 -2.689,3.15 -6.503,4.982 -9.202,8.093 2.97,0.079 5.949,-0.161 8.921,0.108 0.111,0.47 0.354,1.399 0.466,1.869 -4.466,0.985 -9.008,0.331 -13.5,0.037 0.33,-5.812 6.714,-7.374 10.182,-10.876 0.852,-2.293 -1.451,-3.056 -2.924,-4.09 -1.517,0.865 -3.014,1.78 -4.26,3.005 -0.78,0.003 -2.319,-0.002 -3.1,0.001 z"
   id="path3393"
   inkscape:connector-curvature="0"
   style="fill:#383634;display:inline" />
	<path
   display="inline"
   d="m 376.59,487.036 c 0.71,0.019 2.12,0.044 2.831,0.051 0.322,3.519 0.344,7.049 0.246,10.589 1.672,0.484 5.304,1.031 2.912,3.3 -0.689,0.094 -2.079,0.268 -2.769,0.36 -0.117,0.77 -0.342,2.311 -0.459,3.092 -2.152,2.347 -1.958,-1.963 -2.891,-3.08 -2.241,-0.332 -4.54,0.016 -6.751,-0.427 -1.496,-1.575 -0.062,-3.28 0.823,-4.713 2.01,-3.067 3.638,-6.393 6.058,-9.172 z"
   id="path3395"
   inkscape:connector-curvature="0"
   style="fill:#383634;display:inline" />
	<path
   display="inline"
   d="m 372.938,498.049 c 1.073,-2.072 2.396,-4.018 3.86,-5.843 -0.013,1.971 -0.096,3.931 -0.229,5.9 -1.22,-0.004 -2.43,0.029 -3.631,-0.057 z"
   id="path3397"
   inkscape:connector-curvature="0"
   style="fill:#fffeff;display:inline" />
	<path
   display="inline"
   d="m 362.682,518.985 c 0.69,-0.002 2.08,0.003 2.78,0.01 6.921,3.497 13.536,7.573 20.499,11.02 0.062,0.89 0.116,1.79 0.188,2.699 -5.247,-2.172 -10.008,-5.336 -15.038,-7.938 -2.905,-1.779 -6.448,-2.838 -8.429,-5.791 z"
   id="path3399"
   inkscape:connector-curvature="0"
   style="fill:#fe2121;display:inline" />
	<path
   display="inline"
   d="m 478.29,532.462 c 0.888,-0.433 1.777,-0.855 2.675,-1.299 1.042,0.396 2.073,0.792 3.135,1.169 -1.941,-0.034 -3.88,-0.007 -5.81,0.13 z"
   id="path3401"
   inkscape:connector-curvature="0"
   style="fill:#fffeff;display:inline" />
	<path
   display="inline"
   d="m 375.661,538.71 c 3.767,-0.742 7.453,-2.045 11.333,-2.179 0.032,0.48 0.085,1.449 0.106,1.929 -10.88,2.938 -22.012,4.918 -32.994,7.495 -3.377,0.723 -6.724,1.804 -10.214,1.776 -0.065,-1.66 1.452,-2.415 2.771,-2.71 9.703,-1.883 19.305,-4.306 28.998,-6.311 z"
   id="path3403"
   inkscape:connector-curvature="0"
   style="fill:#fe2121;display:inline" />
	<path
   display="inline"
   d="m 371.392,556.156 c 1.439,-3.115 5.248,-3.629 8.279,-3.1 1.59,-0.006 2.246,1.702 2.28,3.052 -3.351,-0.168 -8.393,-0.811 -8.616,3.9 2.349,-0.309 4.738,-0.456 7.07,0.066 0.782,0.816 1.575,1.613 2.398,2.411 0.45,2.878 0.163,6.67 -2.992,7.87 -2.146,1.337 -4.738,0.776 -6.802,-0.396 -4.101,-3.314 -4.323,-9.504 -1.617,-13.803 z"
   id="path3405"
   inkscape:connector-curvature="0"
   style="fill:#383634;display:inline" />
	<path
   display="inline"
   d="m 373.21,564.27 c 2.004,-1.558 4.25,-2.945 6.497,-0.933 -0.196,1.301 0.36,2.989 -0.857,3.942 -1.254,1.625 -3.607,0.733 -4.881,-0.382 -0.253,-0.878 -0.506,-1.759 -0.759,-2.627 z"
   id="path3407"
   inkscape:connector-curvature="0"
   style="fill:#fffeff;display:inline" />
	<path
   display="inline"
   d="m 574.479,569.227 c 1.132,0.406 2.243,0.822 3.395,1.219 -5.089,0.308 -10.19,0.075 -15.28,0.183 3.896,-0.953 7.916,-0.958 11.885,-1.402 z"
   id="path3409"
   inkscape:connector-curvature="0"
   style="fill:#fffeff;display:inline" />
	<path
   display="inline"
   d="m 372.594,579.892 c 3.544,-1.582 6.867,-3.813 10.754,-4.458 -0.068,3.151 -3.928,3.504 -6.053,4.902 -9.354,4.462 -18.618,9.115 -28.033,13.438 -0.033,-0.9 -0.057,-1.801 -0.069,-2.689 7.918,-3.469 15.575,-7.506 23.401,-11.193 z"
   id="path3411"
   inkscape:connector-curvature="0"
   style="fill:#fe2121;display:inline" />
	<path
   display="inline"
   d="M 597.712,584.386"
   id="path3413"
   inkscape:connector-curvature="0"
   style="fill:#383634;display:inline" />
	<path
   display="inline"
   d="m 372.755,620.062 c 3.02,-0.142 6.367,-0.853 9.053,0.968 0.334,1.049 0.688,2.098 1.071,3.146 -0.564,1.462 -1.159,2.924 -1.784,4.376 1.654,1.304 2.771,3.25 2.269,5.433 -1.003,2.014 -2.987,3.61 -5.186,4.157 -3.208,0.422 -6.265,-1.487 -7.905,-4.151 -1.15,-2.927 2.872,-5.321 1.022,-8.174 -1.228,-2.097 0.516,-4.003 1.46,-5.755 z"
   id="path3415"
   inkscape:connector-curvature="0"
   style="fill:#383634;display:inline" />
	<path
   display="inline"
   d="m 373.85,624.257 c 1.118,-3.323 4.981,-2.308 6.181,0.339 -1.424,1.865 -5.582,2.46 -6.181,-0.339 z"
   id="path3417"
   inkscape:connector-curvature="0"
   style="fill:#fffeff;display:inline" />
	<path
   display="inline"
   d="m 374.339,630.105 c 2.389,-0.288 5.261,0.201 6,2.899 -1.311,2.634 -5.391,2.778 -6.979,0.324 0.248,-0.809 0.732,-2.422 0.979,-3.223 z"
   id="path3419"
   inkscape:connector-curvature="0"
   style="fill:#fffeff;display:inline" />
	<path
   display="inline"
   d="m 372.292,688.233 c 1.796,-1.196 3.722,-2.193 5.791,-2.831 3.526,1.889 6.249,5.539 5.943,9.68 -0.038,3.42 -1.272,7.675 -4.788,8.978 -1.33,0.063 -2.66,0.099 -3.98,0.084 -1.013,-0.718 -2.025,-1.413 -3.047,-2.1 -2.016,-4.433 -2.123,-9.433 0.081,-13.811 z"
   id="path3421"
   inkscape:connector-curvature="0"
   style="fill:#383634;display:inline" />
	<path
   display="inline"
   d="m 362.395,685.998 c 1.15,-0.045 2.081,0.372 2.794,1.25 0.437,4.778 -0.246,9.632 0.451,14.398 0.72,0.198 2.172,0.592 2.892,0.79 -1.718,3.116 -6.064,1.521 -8.964,1.521 -0.191,-0.409 -0.584,-1.238 -0.776,-1.647 1.119,-0.334 2.248,-0.667 3.376,-0.981 -0.013,-3.68 -0.025,-7.35 -0.038,-11.01 -0.76,-0.088 -2.301,-0.263 -3.062,-0.351 -0.737,-2.266 2.031,-2.806 3.327,-3.97 z"
   id="path3423"
   inkscape:connector-curvature="0"
   style="fill:#383634;display:inline" />
	<path
   display="inline"
   d="m 376.367,689.399 c 1.217,-0.875 2.482,0.571 3.653,0.897 0.392,3.138 1.013,6.346 0.023,9.45 -0.987,0.753 -1.955,1.536 -2.922,2.319 -0.974,-0.946 -1.957,-1.894 -2.93,-2.829 0.389,-3.26 -1.438,-7.904 2.176,-9.837 z"
   id="path3425"
   inkscape:connector-curvature="0"
   style="fill:#fffeff;display:inline" />
</g>



<path
   style="fill:#b4b2e4"
   inkscape:connector-curvature="0"
   id="path3537"
   d="m 241.83475,460.8875 c 1.419,-0.395 1.921,0.104 1.476,1.475 -1.43,0.386 -1.921,-0.112 -1.476,-1.475 z" />
<g
   inkscape:groupmode="layer"
   id="layer1"
   inkscape:label="Labels"
   style="display:inline"
   transform="translate(28.46875,-2.4375)"><text
     style="font-size:24px;font-style:normal;font-variant:normal;font-weight:normal;font-stretch:normal;text-align:start;line-height:125%;writing-mode:lr-tb;text-anchor:start;font-family:Sans;-inkscape-font-specification:Sans;fill:#000080"
     id="text3492"
     font-size="24"
     x="-768.08063"
     y="388.71872"
     sodipodi:linespacing="125%"
     transform="matrix(0,-1,1,0,0,0)"><tspan
       sodipodi:role="line"
       id="tspan5206"
       x="-768.08063"
       y="388.71872">Flow</tspan><tspan
       sodipodi:role="line"
       id="tspan5208"
       x="-768.08063"
       y="418.71872">(liters per second)</tspan></text>
<text
     style="font-size:24px;font-style:normal;font-variant:normal;font-weight:normal;font-stretch:normal;text-align:center;line-height:125%;writing-mode:lr-tb;text-anchor:middle;font-family:Sans;-inkscape-font-specification:Sans;fill:#000080"
     id="text3494"
     font-size="24"
     x="845.05878"
     y="355.4263"
     sodipodi:linespacing="125%"><tspan
       sodipodi:role="line"
       id="tspan5210"
       x="845.05878"
       y="355.4263">Volume</tspan><tspan
       sodipodi:role="line"
       id="tspan5212"
       x="845.05878"
       y="385.4263">(L)</tspan></text>
<text
     style="font-size:32px;fill:#cf7c00;font-family:Arial-BoldMT"
     id="text3530"
     font-size="32"
     x="808.95374"
     y="289.87787">FVC</text>
<text
     style="font-size:32px;fill:#cf7c00;font-family:Arial-BoldMT"
     id="text3532"
     font-size="32"
     x="497.4693"
     y="46.890091">PEF, MEF</text>
<text
     style="font-size:32px;fill:#291eff;font-family:Arial-BoldMT"
     id="text3539"
     font-size="32"
     transform="matrix(0,-1,1,0,0,0)"
     x="-273.01282"
     y="270.4537">Expiration</text>
<text
     style="font-size:32px;fill:#fe2121;font-family:Arial-BoldMT"
     id="text3541"
     font-size="32"
     transform="matrix(0,-1,1,0,0,0)"
     x="-547.08069"
     y="270.4537">Inspiration</text>
<text
     id="text3553"
     x="471.74759"
     y="93.662079"><tspan
       style="font-size:32px;fill:#291eff;font-family:Arial-BoldMT"
       id="tspan3555"
       font-size="32"
       y="93.662079"
       x="471.74759">FEF</tspan><tspan
       style="font-size:19px;fill:#291eff;font-family:Arial-BoldMT"
       id="tspan3557"
       font-size="19"
       y="93.662079"
       x="532.18567">25%</tspan></text>
<text
     id="text3559"
     x="592.74768"
     y="203.86717"><tspan
       style="font-size:32px;fill:#291eff;font-family:Arial-BoldMT"
       id="tspan3561"
       font-size="32"
       y="203.86717"
       x="592.74768">FEF</tspan><tspan
       style="font-size:19px;fill:#291eff;font-family:Arial-BoldMT"
       id="tspan3563"
       font-size="19"
       y="203.86717"
       x="653.18567">50%</tspan></text>
<text
     id="text3565"
     x="687.74768"
     y="307.14648"><tspan
       style="font-size:32px;fill:#291eff;font-family:Arial-BoldMT"
       id="tspan3567"
       font-size="32"
       y="307.14648"
       x="687.74768">FEF</tspan><tspan
       style="font-size:19px;fill:#291eff;font-family:Arial-BoldMT"
       id="tspan3569"
       font-size="19"
       y="307.14648"
       x="748.18567">75%</tspan></text>
<text
     id="text3571"
     x="435.74759"
     y="573.78809"><tspan
       style="font-size:32px;fill:#fe2121;font-family:Arial-BoldMT"
       id="tspan3573"
       font-size="32"
       y="573.78809"
       x="435.74759">FIF</tspan><tspan
       style="font-size:19px;fill:#fe2121;font-family:Arial-BoldMT"
       id="tspan3575"
       font-size="19"
       y="573.78809"
       x="483.7316">25%</tspan></text>
<text
     id="text3577"
     x="676.74768"
     y="578.66602"><tspan
       style="font-size:32px;fill:#fe2121;font-family:Arial-BoldMT"
       id="tspan3579"
       font-size="32"
       y="578.66602"
       x="676.74768">FIF</tspan><tspan
       style="font-size:19px;fill:#fe2121;font-family:Arial-BoldMT"
       id="tspan3581"
       font-size="19"
       y="578.66602"
       x="724.73157">75%</tspan></text>
<text
     id="text3583"
     x="558.74768"
     y="606.18549"><tspan
       style="font-size:32px;fill:#fe2121;font-family:Arial-BoldMT"
       id="tspan3585"
       font-size="32"
       y="606.18549"
       x="558.74768">FIF</tspan><tspan
       style="font-size:19px;fill:#fe2121;font-family:Arial-BoldMT"
       id="tspan3587"
       font-size="19"
       y="606.18549"
       x="606.73157">50%</tspan></text>
</g></svg>